PathFileType	4	(X/Y/Z)	/Users/itak/Documents/Research/Walk-IL/dataset/trc/00046_00004.trc
DataRate	CameraRate	NumFrames	NumMarkers	Units	OrigDataRate	OrigDataStartFrame	OrigNumFrames
100.000000	100.000000	4	53	mm	100.000000	421	482
Frame#	Time	RPSI			LPSI			L3			STRN			T10			C7			CLAV			RBAK			LBAK			LSHO			LUPA			LAEL			LAOL			LWTS			LWPS			LFRA			LIFD			LHPS			LHTS			RSHO			RUPA			RAEL			RAOL			RWTS			RWPS			RFRA			RIFD			RHTS			RHPS			RBHD			LFHD			RFHD			LBHD			LHIP			RASI			LASI			LKNE			LTHI			LANK			LTIP			LTOE			LMT1			LMT5			LHEE			RKNE			RTHI			RANK			RTIP			RTOE			RMT1			RMT5			RHEE			RHIP			
		X1	Y1	Z1	X2	Y2	Z2	X3	Y3	Z3	X4	Y4	Z4	X5	Y5	Z5	X6	Y6	Z6	X7	Y7	Z7	X8	Y8	Z8	X9	Y9	Z9	X10	Y10	Z10	X11	Y11	Z11	X12	Y12	Z12	X13	Y13	Z13	X14	Y14	Z14	X15	Y15	Z15	X16	Y16	Z16	X17	Y17	Z17	X18	Y18	Z18	X19	Y19	Z19	X20	Y20	Z20	X21	Y21	Z21	X22	Y22	Z22	X23	Y23	Z23	X24	Y24	Z24	X25	Y25	Z25	X26	Y26	Z26	X27	Y27	Z27	X28	Y28	Z28	X29	Y29	Z29	X30	Y30	Z30	X31	Y31	Z31	X32	Y32	Z32	X33	Y33	Z33	X34	Y34	Z34	X35	Y35	Z35	X36	Y36	Z36	X37	Y37	Z37	X38	Y38	Z38	X39	Y39	Z39	X40	Y40	Z40	X41	Y41	Z41	X42	Y42	Z42	X43	Y43	Z43	X44	Y44	Z44	X45	Y45	Z45	X46	Y46	Z46	X47	Y47	Z47	X48	Y48	Z48	X49	Y49	Z49	X50	Y50	Z50	X51	Y51	Z51	X52	Y52	Z52	X53	Y53	Z53	

422	4.21	120.4790954589844	1071.134155273438	946.7532958984375	282.2270812988281	1064.130249023438	917.2456665039062	209.9001312255859	1120.375122070312	921.8350219726562	230.1569061279297	1328.487915039062	1129.088012695312	211.8914031982422	1261.44140625	884.4945678710938	227.5381011962891	1532.3037109375	913.7372436523438	230.2697906494141	1451.768798828125	1079.000366210938	144.0141296386719	1391.503051757812	875.7803344726562	323.6004943847656	1489.37255859375	893.13671875	403.0168151855469	1503.866333007812	990.234130859375	479.1946411132812	1376.779663085938	963.4468994140625	507.3497314453125	1160.013549804688	976.4227905273438	414.3046264648438	1142.27392578125	928.5473022460938	461.8012084960938	919.5357055664062	1095.691162109375	497.7117004394531	895.976806640625	1017.742492675781	515.9574584960938	1046.150024414062	1000.120361328125	445.1096496582031	739.9083251953125	1144.5126953125	500.4837341308594	811.0217895507812	1061.958251953125	476.5621948242188	829.2950439453125	1126.54052734375	55.14078140258789	1521.68115234375	1000.6552734375	-15.66884326934814	1451.368774414062	993.316650390625	-38.06056594848633	1182.826293945312	963.31298828125	58.78806686401367	1156.794067382812	962.9219970703125	-7.665832042694092	921.357421875	1089.4013671875	-72.35842132568359	908.632568359375	1024.293823242188	-53.39232635498047	1107.5068359375	975.9866943359375	6.034080505371094	734.830322265625	1100.292358398438	-20.92585563659668	813.1826782226562	1120.454223632812	-72.29119873046875	807.0459594726562	1063.867065429688	294.2803649902344	1722.2197265625	961.4863891601562	155.3243103027344	1741.41162109375	1128.471801757812	252.5972290039062	1747.0234375	1136.24169921875	150.7559967041016	1711.409912109375	956.2716064453125	408.61328125	965.0992431640625	997.1405639648438	130.4909515380859	999.5375366210938	1166.58837890625	360.7401428222656	1015.672607421875	1121.567016601562	377.5892028808594	520.9520263671875	1068.662963867188	406.62255859375	657.1136474609375	1033.202392578125	375.1290893554688	38.53346252441406	971.6445922851562	389.321533203125	287.9586486816406	989.5128784179688	328.3120727539062	39.16681671142578	1197.189208984375	308.0299987792969	49.26248931884766	1138.796142578125	406.0694274902344	37.79142379760742	1092.801147460938	317.5370483398438	44.12030792236328	907.048095703125	98.52021026611328	523.1205444335938	1083.199951171875	51.55664825439453	791.9363403320312	1102.5810546875	103.9904098510742	45.71131896972656	957.9844970703125	98.58571624755859	400.2277526855469	1056.717041015625	194.0883483886719	43.81457901000977	1174.548950195312	210.0365447998047	48.13173675537109	1106.447631835938	112.5450820922852	41.20757675170898	1107.484375	134.8814697265625	48.21276092529297	894.5263061523438	42.7910270690918	960.513916015625	1079.493408203125	
423	4.22	122.1345672607422	1071.094116210938	947.9322509765625	284.0106506347656	1063.982177734375	918.9605102539062	211.7220764160156	1120.15283203125	923.4379272460938	231.1540222167969	1328.410766601562	1130.243530273438	213.7151794433594	1261.142700195312	885.745361328125	229.1666717529297	1532.055541992188	914.6766967773438	231.5107727050781	1451.6484375	1080.023681640625	145.7786712646484	1391.232177734375	876.4518432617188	325.2950134277344	1489.065673828125	894.4049072265625	404.3896484375	1503.652465820312	991.7175903320312	480.7268676757812	1376.53369140625	965.34716796875	508.9653015136719	1159.817138671875	978.8615112304688	416.1065368652344	1141.909423828125	930.6336669921875	463.0833740234375	919.6026611328125	1098.526611328125	499.3418273925781	895.8685302734375	1020.779174804688	517.5775756835938	1046.011962890625	1002.846130371094	446.4832153320312	740.1072387695312	1147.764282226562	502.1059875488281	811.04931640625	1065.222900390625	477.8465270996094	829.4715576171875	1129.671997070312	56.50460815429688	1521.451293945312	1001.103759765625	-14.27557277679443	1451.127807617188	993.5849609375	-36.65105819702148	1182.70849609375	963.4192504882812	60.18665313720703	1156.66552734375	963.2459106445312	-7.28071928024292	920.0709838867188	1087.387573242188	-71.90104675292969	908.2977294921875	1021.946899414062	-52.11185455322266	1107.513916015625	975.6254272460938	6.000800132751465	733.4022216796875	1096.01220703125	-21.36562728881836	811.086669921875	1116.637084960938	-72.14838409423828	806.2576293945312	1060.32080078125	295.7731018066406	1721.898681640625	962.2570190429688	156.6408233642578	1741.588012695312	1129.041870117188	253.9388580322266	1747.072509765625	1136.900756835938	152.2770385742188	1711.219848632812	956.8695678710938	410.0398254394531	964.8541259765625	999.1619873046875	131.345458984375	999.2424926757812	1167.863403320312	361.9725036621094	1015.435607910156	1123.524047851562	378.3676147460938	520.3099365234375	1067.881713867188	407.4405212402344	656.7568359375	1033.248779296875	375.1273803710938	38.46099090576172	971.6090698242188	389.6640625	287.8481750488281	988.7952880859375	328.3441162109375	39.16880798339844	1197.168090820312	308.0576171875	49.28964233398438	1138.776245117188	406.1509704589844	37.74254608154297	1092.785278320312	317.5323791503906	44.02348327636719	906.9981079101562	99.23048400878906	523.17138671875	1083.29931640625	52.55663299560547	792.2029418945312	1103.275756835938	104.1295394897461	45.80828475952148	957.9788208007812	99.07129669189453	400.3410949707031	1056.6259765625	193.7958374023438	43.99302673339844	1174.601928710938	209.9587249755859	48.13888931274414	1106.545654296875	112.5071029663086	41.2232551574707	1107.463989257812	135.0713806152344	48.30016326904297	894.5172119140625	44.14077758789062	960.5551147460938	1080.407470703125	
424	4.23	123.7413558959961	1071.068115234375	949.085693359375	285.7316589355469	1063.817993164062	920.6083984375	213.4748840332031	1119.936157226562	924.966796875	232.1480712890625	1328.33056640625	1131.349487304688	215.4848327636719	1260.859741210938	886.9404296875	230.7537078857422	1531.814086914062	915.5890502929688	232.7230834960938	1451.53271484375	1081.015747070312	147.5078125	1390.974975585938	877.1410522460938	326.9478454589844	1488.778930664062	895.6254272460938	405.7407531738281	1503.456298828125	993.1387329101562	482.207763671875	1376.30322265625	967.1781616210938	510.4949035644531	1159.6298828125	981.2291259765625	417.8027954101562	1141.564208984375	932.6997680664062	464.3655395507812	919.6177978515625	1101.216674804688	500.9044799804688	895.7529907226562	1023.631469726562	519.1116333007812	1045.874389648438	1005.462097167969	447.8639831542969	740.2254638671875	1150.7783203125	503.6817321777344	811.0474853515625	1068.24951171875	479.1341857910156	829.5785522460938	1132.59716796875	57.859619140625	1521.231201171875	1001.550048828125	-12.89915943145752	1450.904541015625	993.8557739257812	-35.2745246887207	1182.609252929688	963.5078125	61.54442596435547	1156.55859375	963.5471801757812	-6.880428314208984	918.9404296875	1085.509765625	-71.44632720947266	908.025634765625	1019.779724121094	-50.86296463012695	1107.53955078125	975.2845458984375	6.011734962463379	732.1406860351562	1092.05615234375	-21.66132354736328	809.2425537109375	1113.142456054688	-71.97563934326172	805.5875854492188	1057.046752929688	297.2493286132812	1721.593872070312	963.0299682617188	157.9576721191406	1741.747436523438	1129.636596679688	255.2760009765625	1747.101806640625	1137.56982421875	153.7709655761719	1711.056640625	957.4838256835938	411.4032897949219	964.5530395507812	1001.072448730469	132.2576446533203	998.9219970703125	1169.06103515625	363.1581420898438	1015.195983886719	1125.399536132812	379.0286254882812	519.7506713867188	1067.144653320312	408.1308288574219	656.4190673828125	1033.34716796875	375.1229858398438	38.40216445922852	971.5823364257812	389.988525390625	287.7496032714844	988.1253662109375	328.3693542480469	39.17204666137695	1197.149047851562	308.0784912109375	49.31154632568359	1138.760009765625	406.2139892578125	37.70211410522461	1092.77392578125	317.526123046875	43.93427276611328	906.9511108398438	99.93649291992188	523.2406005859375	1083.369506835938	53.5743293762207	792.420166015625	1103.976318359375	104.2646408081055	45.89925384521484	957.9718017578125	99.54788970947266	400.4490661621094	1056.535522460938	193.5235290527344	44.15462493896484	1174.657836914062	209.8697357177734	48.15208053588867	1106.640747070312	112.4575881958008	41.2378044128418	1107.44189453125	135.2780914306641	48.38846588134766	894.5062866210938	45.47662353515625	960.59326171875	1081.305786132812	
425	4.24	125.2968063354492	1071.0595703125	950.21337890625	287.3876037597656	1063.642822265625	922.18798828125	215.1549072265625	1119.729858398438	926.415283203125	233.1367492675781	1328.255493164062	1132.411376953125	217.2012481689453	1260.595458984375	888.0860595703125	232.3029479980469	1531.583740234375	916.4728393554688	233.8932189941406	1451.429565429688	1081.980834960938	149.2030181884766	1390.731323242188	877.8565673828125	328.5602416992188	1488.514404296875	896.8010864257812	407.0770568847656	1503.281372070312	994.50048828125	483.6410522460938	1376.095092773438	968.9434204101562	511.9461364746094	1159.458618164062	983.52197265625	419.4022216796875	1141.24609375	934.7329711914062	465.6485290527344	919.5906372070312	1103.756713867188	502.3980407714844	895.6372680664062	1026.297485351562	520.5596923828125	1045.742919921875	1007.96630859375	449.2184753417969	740.2685546875	1153.553344726562	505.190185546875	811.0201416015625	1071.037719726562	480.4147644042969	829.62158203125	1135.31103515625	59.20555114746094	1521.03125	1001.991027832031	-11.53681087493896	1450.708618164062	994.124267578125	-33.91685104370117	1182.533935546875	963.5761108398438	62.87997436523438	1156.48291015625	963.838134765625	-6.482933521270752	917.986572265625	1083.767211914062	-70.98131561279297	907.8164672851562	1017.782531738281	-49.63518524169922	1107.588012695312	974.9566040039062	6.053177833557129	731.0492553710938	1088.46435546875	-21.80938148498535	807.6864624023438	1110.012573242188	-71.77251434326172	805.035400390625	1054.0458984375	298.7060546875	1721.318725585938	963.8023071289062	159.2705993652344	1741.878051757812	1130.255737304688	256.5960388183594	1747.113647460938	1138.249877929688	155.2316284179688	1710.93017578125	958.1153564453125	412.7032470703125	964.19775390625	1002.861938476562	133.2227172851562	998.61572265625	1170.188232421875	364.2876586914062	1014.963500976562	1127.19287109375	379.5796813964844	519.2897338867188	1066.464233398438	408.712890625	656.1119384765625	1033.49560546875	375.1177368164062	38.35657119750977	971.5634765625	390.2916870117188	287.6627807617188	987.5157470703125	328.3877258300781	39.17538452148438	1197.133178710938	308.093994140625	49.32880020141602	1138.748046875	406.2626037597656	37.67032623291016	1092.765991210938	317.5198669433594	43.8544921875	906.9097900390625	100.6302337646484	523.32080078125	1083.42041015625	54.60170745849609	792.5870361328125	1104.682006835938	104.39306640625	45.98514938354492	957.9620971679688	100.0170822143555	400.5561828613281	1056.45654296875	193.2804718017578	44.29244995117188	1174.716064453125	209.7751922607422	48.17244338989258	1106.727783203125	112.3998031616211	41.25141525268555	1107.418701171875	135.4961547851562	48.4771842956543	894.4963989257812	46.77877426147461	960.6302490234375	1082.197509765625	
